#!OML:ASF I:\golf\golf\golf 2\Subject 1\2002-09-07\Subject1.ASF
:FULLY-SPECIFIED
:DEGREES
556
root -11.1454 18.0598 6.19842 -155.769 75.1501 -173.002
lowerback 2.79156 2.50031 1.01597
upperback 3.52963 3.47039 4.96118
thorax 1.82042 1.77655 4.50749
lowerneck -12.2903 3.51241 7.27052
upperneck 36.3888 7.5422 -6.04171
head 15.302 4.0146 -2.4257
rclavicle 1.43125e-014 7.95139e-015
rhumerus -8.66802 8.28014 -100.223
rradius 31.7188
rwrist -42.1428
rhand -27.1659 -16.3024
rfingers 7.12502
rthumb -0.580306 -46.2813
lclavicle 1.43125e-014 7.95139e-015
lhumerus -12.4312 -45.6319 109.598
lradius 35.2693
lwrist 49.5294
lhand -5.04984 59.2446
lfingers 7.12502
lthumb -159.254 268.156
rfemur -23.5818 -4.76823 13.3824
rtibia 22.4325
rfoot -8.02267 -17.1275
rtoes -0.801037
lfemur -29.7602 0.933861 -11.8854
ltibia 20.6533
lfoot -8.00938 -13.3719
ltoes -14.2804
557
root -11.1459 18.0594 6.1986 -155.795 75.0954 -173.016
lowerback 2.80305 2.49203 1.06383
upperback 3.5328 3.46034 4.94707
thorax 1.82154 1.77265 4.46556
lowerneck -12.2557 3.57279 7.33356
upperneck 36.3268 7.62042 -6.0751
head 15.2765 4.05074 -2.4376
rclavicle -8.42847e-014 1.43125e-014
rhumerus -8.64722 8.24477 -100.243
rradius 31.7249
rwrist -42.1384
rhand -27.2542 -16.4558
rfingers 7.12502
rthumb -0.665571 -46.4345
lclavicle -8.42847e-014 1.43125e-014
lhumerus -12.4194 -45.6663 109.556
lradius 35.27
lwrist 49.5465
lhand -5.04589 59.2749
lfingers 7.12502
lthumb -159.251 268.186
rfemur -23.5416 -4.7948 13.3896
rtibia 22.4048
rfoot -8.0341 -17.1211
rtoes -0.775402
lfemur -29.7629 0.933727 -11.8851
ltibia 20.6524
lfoot -7.95926 -13.4159
ltoes -14.0919
558
root -11.1456 18.0591 6.19982 -155.706 75.0911 -172.903
lowerback 2.82131 2.48885 1.05317
upperback 3.54541 3.45754 4.97523
thorax 1.82229 1.77134 4.50055
lowerneck -12.2432 3.62222 7.32538
upperneck 36.2783 7.71519 -6.14006
head 15.2626 4.08024 -2.4471
rclavicle -1.59028e-015 -5.88403e-014
rhumerus -8.67218 8.47406 -100.235
rradius 31.8375
rwrist -42.501
rhand -27.7412 -16.4934
rfingers 7.12502
rthumb -1.13595 -46.4701
lclavicle -1.59028e-015 -5.88403e-014
lhumerus -12.3403 -45.5694 109.524
lradius 35.2281
lwrist 49.529
lhand -4.87315 59.3081
lfingers 7.12502
lthumb -159.085 268.201
rfemur -23.4898 -4.77112 13.4085
rtibia 22.3566
rfoot -8.07571 -17.0927
rtoes -0.478089
lfemur -29.7421 0.896774 -11.8264
ltibia 20.6617
lfoot -7.81391 -13.3954
ltoes -13.4543
559
root -11.1437 18.0615 6.20162 -155.252 75.1354 -172.421
lowerback 2.82701 2.48951 1.08777
upperback 3.55686 3.46131 5.03389
thorax 1.82928 1.77457 4.54249
lowerneck -12.34 3.68642 7.20176
upperneck 36.3878 7.84321 -6.09297
head 15.3433 4.12288 -2.38206
rclavicle -5.96354e-014 -5.725e-014
rhumerus -8.68425 8.67289 -100.24
rradius 31.8639
rwrist -42.7324
rhand -28.1033 -16.4101
rfingers 7.12502
rthumb -1.48565 -46.3847
lclavicle -5.96354e-014 -5.725e-014
lhumerus -12.2859 -45.4298 109.508
lradius 35.2192
lwrist 49.5595
lhand -4.78581 59.2665
lfingers 7.12502
lthumb -159.001 268.15
rfemur -23.4567 -4.7097 13.5308
rtibia 22.2943
rfoot -8.26081 -17.0499
rtoes 0.517456
lfemur -29.7168 0.921711 -11.685
ltibia 20.6922
lfoot -7.86235 -13.3367
ltoes -13.6178
560
root -11.1422 18.0638 6.20279 -155.039 75.1637 -172.176
lowerback 2.84759 2.4844 1.06805
upperback 3.56176 3.45678 5.08467
thorax 1.81906 1.7724 4.60583
lowerneck -12.356 3.75235 7.10577
upperneck 36.4316 7.9645 -6.05344
head 15.3737 4.16637 -2.32709
rclavicle -7.95139e-016 5.08889e-014
rhumerus -8.65025 8.58721 -100.237
rradius 31.7414
rwrist -42.4327
rhand -27.9493 -16.4559
rfingers 7.12502
rthumb -1.33697 -46.4314
lclavicle -7.95139e-016 5.08889e-014
lhumerus -12.261 -45.3249 109.507
lradius 35.2148
lwrist 49.5646
lhand -4.7676 59.2297
lfingers 7.12502
lthumb -158.983 268.111
rfemur -23.4052 -4.59066 13.5789
rtibia 22.2244
rfoot -8.31507 -17.1284
rtoes 0.634953
lfemur -29.7002 1.02201 -11.652
ltibia 20.7369
lfoot -7.98029 -13.3634
ltoes -13.907
